<svg xmlns="http://www.w3.org/2000/svg" version="1.1" xmlns:xlink="http://www.w3.org/1999/xlink" xmlns:svgjs="http://svgjs.com/svgjs" width="514" height="250" preserveAspectRatio="none" viewBox="0 0 514 250"><g mask="url(&quot;#SvgjsMask1264&quot;)" fill="none"><rect width="514" height="250" x="0" y="0" fill="rgba(172, 197, 251, 1)"></rect><path d="M6 250L256 0L382 0L132 250z" fill="url(#SvgjsLinearGradient1265)"></path><path d="M199.62 250L449.62 0L542.62 0L292.62 250z" fill="url(#SvgjsLinearGradient1265)"></path><path d="M490 250L240 0L16.5 0L266.5 250z" fill="url(#SvgjsLinearGradient1266)"></path><path d="M322.38 250L72.38 0L-134.62 0L115.38 250z" fill="url(#SvgjsLinearGradient1266)"></path><path d="M302.7155883800119 250L514 38.71558838001192L514 250z" fill="url(#SvgjsLinearGradient1265)"></path><path d="M0 250L211.28441161998808 250L 0 38.71558838001192z" fill="url(#SvgjsLinearGradient1266)"></path></g><defs><mask id="SvgjsMask1264"><rect width="514" height="250" fill="#ffffff"></rect></mask><linearGradient x1="0%" y1="100%" x2="100%" y2="0%" id="SvgjsLinearGradient1265"><stop stop-color="rgba(247, 247, 247, 1)" offset="0"></stop><stop stop-opacity="0" stop-color="rgba(247, 247, 247, 1)" offset="0.66"></stop></linearGradient><linearGradient x1="100%" y1="100%" x2="0%" y2="0%" id="SvgjsLinearGradient1266"><stop stop-color="rgba(247, 247, 247, 1)" offset="0"></stop><stop stop-opacity="0" stop-color="rgba(247, 247, 247, 1)" offset="0.66"></stop></linearGradient></defs></svg>