<svg xmlns:xlink="http://www.w3.org/1999/xlink" xmlns="http://www.w3.org/2000/svg" width="172" height="252" viewBox="0 0 172 252" fill="none"><mask id="b" maskUnits="userSpaceOnUse" x="0" y="0" width="172" height="252"><path d="M0 16C0 7.163 7.163 0 16 0h140c8.837 0 16 7.163 16 16v220c0 8.837-7.163 16-16 16H16c-8.837 0-16-7.163-16-16V16z" fill="#C4C4C4"/></mask><g clip-path="url(#a)" stroke-miterlimit="10" mask="url(#b)"><path d="M213.436-177.512c.41 0-.684 6.463 0 18.04.547 10.611.41 22.573 0 40.323-.274 10.129 6.29 21.223-2.051 32.606-.821 1.158-2.325 2.316-3.419 3.763-1.778 2.122-3.965 4.727-7.384 7.428-6.016 4.727-10.665 10.225-13.81 15.435-1.641 2.797-2.735 5.402-5.743 8.585-4.376 4.727.546 8.682-1.641 13.023-1.778 3.57 3.555 7.14 6.973 10.42 3.419 3.279 9.299 4.63 12.444 9.935.683 1.158.82 2.509 2.051 4.052 1.777 2.219 3.965 4.727 6.426 6.946 4.513 4.148-.957 8.489-.957 13.023 0 4.534-3.965 7.91-6.153 12.155-.82 1.543-.684 1.64-4.376 4.534-2.188 1.736-6.837 4.244-9.161 7.814-2.872 4.437-1.094 11.865 1.094 15.724 2.324 4.052 6.153 7.428 8.067 10.901.547 1.061 2.051 1.254 2.598 1.93 1.231 1.736.411 3.569 6.974 5.209 6.427 1.64 6.974.675 9.708 1.254 16.546 3.666 20.101 5.113 26.254 8.585 6.017 3.377 9.025 5.788 10.529 10.033 2.188 6.174-3.281 12.83-3.418 19.776 0 2.412 1.367 4.823.957 7.139-.547 3.183-3.145 5.498-3.965 8.296-1.641 6.174-3.556 10.901-11.076 17.847-7.931 7.428-15.178 16.013-22.152 23.731-.41.482-.82 1.157-1.367 1.64-11.897 9.743-17.366 17.846-24.34 26.335-5.469 6.657-13.537 12.541-15.862 19.198-.957 2.894.547 6.077.411 9.55 0 2.219-1.094 4.245-1.094 6.174 0 5.209-1.641 9.647 9.161 14.663 7.658 3.569 6.974 5.402 14.221 8.103 3.145 1.158 6.7 1.447 17.503 1.64 11.075.193 10.255-.386 20.921 5.499 2.734 1.447 4.785 3.473 6.7 5.499 5.606 6.174 9.298 13.602 8.751 20.837-.547 7.331-5.333 12.155-7.11 18.715-.274 1.157.547 2.315 0 3.569-4.102 9.357-12.58 16.593-22.152 22.091-1.641.965-3.008 1.737-3.965 2.605-2.598 2.219-1.231 3.859-.411 6.174 3.692 11.48 3.009 21.223 0 30.387-2.598 8.2 0 15.146 0 19.68 0 4.534 2.462 6.946 0 6.946" stroke="url(#c)"/><path d="M202.497-177.512c.273 0-.684 6.656 0 18.329.546 10.708.136 23.056 0 41.095-.137 10.322 5.879 21.61-1.778 33.475-.821 1.35-2.325 2.508-3.419 3.859-1.777 2.122-3.965 4.823-7.383 7.428-6.29 4.726-10.803 10.322-14.085 15.724-1.777 2.797-2.734 5.21-5.469 8.103-4.239 4.438.41 8.296-1.778 12.541-1.777 3.376 3.145 6.85 6.154 10.033 3.145 3.28 8.888 4.63 11.759 9.55.684 1.254.957 2.508 2.051 3.859 1.641 2.026 3.692 4.534 6.017 6.849 4.102 4.052-.821 8.103-.684 12.348.137 4.341-3.555 7.62-5.743 11.673-.82 1.35-.547 1.736-3.966 4.34-2.187 1.834-6.563 4.052-8.751 7.622-2.735 4.437-.683 11.576 1.778 15.435 2.598 3.955 6.7 7.331 8.478 10.515.547 1.06 2.051 1.254 2.598 1.833 1.504 1.736.957 3.376 7.11 5.016 6.153 1.64 6.837.772 9.709 1.254 16.135 2.99 19.827 5.113 25.843 8.586 6.017 3.472 9.162 5.98 10.529 10.225 2.188 6.367-3.965 13.023-4.102 19.969 0 2.412 1.367 4.823.957 7.332-.547 3.183-3.418 5.691-4.102 8.296-1.778 6.174-3.419 10.997-11.213 18.039-8.204 7.332-15.178 16.207-22.151 23.925-.411.482-.821 1.157-1.368 1.64-11.759 9.839-17.366 17.943-24.613 26.625-5.606 6.753-13.4 12.637-15.861 19.486-1.094 2.894.41 6.174.41 9.551 0 2.218-.957 4.244-.957 6.174 0 5.209-1.778 9.646 9.435 14.759 7.657 3.473 6.837 5.402 14.767 7.911 3.282 1.061 7.111 1.157 18.187 1.157 11.486 0 10.529-.868 21.604 5.21 2.735 1.447 4.923 3.376 6.974 5.498 6.017 6.271 9.709 13.506 9.025 20.934-.684 7.331-5.88 12.348-7.658 18.811-.273 1.158.411 2.315-.273 3.569-4.512 9.551-13.264 16.593-22.972 22.285-1.641.964-3.008 1.736-3.966 2.604-2.598 2.219-1.367 3.859-.41 6.174 4.239 11.576 3.008 21.513 0 30.677-2.871 8.393 0 15.242 0 19.776 0 4.534 2.462 6.946 0 6.946" stroke="url(#d)"/><path d="M191.421-177.512c.273 0-.547 6.849 0 18.522.547 10.901.273 23.635 0 41.771-.137 10.611 5.743 22.187-1.641 34.246-.821 1.35-2.188 2.508-3.419 4.051-1.777 2.22-3.965 4.824-7.657 7.621a56.038 56.038 0 0 0-14.221 16.11c-1.641 2.605-2.598 4.92-5.333 7.815-3.965 4.34.137 8.103-1.777 11.865-1.778 3.377 2.735 6.656 5.469 9.743 2.872 3.087 8.205 4.727 10.803 9.454.547 1.061.957 2.316 2.051 3.762 1.641 2.026 3.418 4.342 5.469 6.464 3.692 3.859-.683 7.814-.41 11.865.274 4.149-3.145 7.332-5.059 11.19-.684 1.351-.547 1.834-3.419 4.342-1.914 1.736-6.016 4.051-8.067 7.428-2.735 4.34-.274 11.287 2.598 14.952 2.734 3.666 7.247 7.043 9.024 10.033.547.965 2.052 1.158 2.599 1.833 1.23 1.64 1.093 3.28 7.11 4.92 6.016 1.543 6.837.772 9.435 1.254 15.315 3.087 19.417 5.21 25.16 8.586 6.016 3.665 9.161 5.98 10.529 10.418 2.051 6.464-4.376 13.12-4.786 20.259-.137 2.411 1.367 4.823.957 7.331-.684 3.376-3.418 5.692-4.376 8.489-2.051 6.174-3.555 10.901-11.486 18.04-8.341 7.428-15.178 16.303-22.288 24.213-.41.483-.821 1.158-1.367 1.64-11.487 9.84-17.366 18.329-24.613 27.011-5.607 6.657-13.264 12.831-15.589 19.776-.957 2.894.137 6.271.274 9.744 0 2.315-.957 4.341-.957 6.367 0 5.402-2.051 9.646 9.708 14.759 7.931 3.473 6.7 5.499 15.452 7.814 3.418.868 7.657.675 19.143.482 12.033-.193 10.802-1.157 22.152 5.017 2.734 1.447 4.922 3.569 6.973 5.498 6.29 6.174 10.119 13.699 9.162 21.127-.957 7.428-5.606 12.637-8.068 19.197-.41 1.158.411 2.508-.273 3.762-4.923 9.937-13.537 16.882-23.656 22.285-1.778.964-3.145 1.832-4.102 2.604-2.735 2.315-1.231 3.859-.41 6.367 3.965 11.866 3.145 21.609 0 31.063-2.872 8.393 0 15.435 0 20.162 0 4.727 2.598 7.138 0 7.138" stroke="url(#e)"/><path d="M180.345-177.512c.273 0-.547 6.946 0 18.811.41 11.094.273 24.117 0 42.35-.137 10.804 5.606 22.766-1.641 34.921-.82 1.35-2.188 2.701-3.419 4.245-1.914 2.315-4.102 5.016-7.657 7.814-6.153 4.92-11.076 10.708-14.494 16.4-1.641 2.604-2.462 4.726-5.06 7.427-3.828 4.052-.136 7.621-2.051 11.384-1.64 3.28 2.598 6.366 5.06 9.453 2.598 3.088 7.247 4.727 10.118 9.069.684 1.06.958 2.122 2.051 3.569 1.505 1.833 3.282 4.244 5.333 6.367 3.556 3.666-.41 7.524-.273 11.383.137 3.955-2.461 7.042-4.376 10.9-.684 1.351-.547 1.737-3.282 4.245-1.914 1.737-5.606 4.052-7.383 7.14-2.462 4.437.41 11.093 3.281 14.662 2.872 3.666 7.521 6.753 9.435 9.744.547.964 2.051 1.157 2.598 1.64 1.504 1.64 1.641 3.28 7.111 4.727 5.469 1.447 6.563.868 9.161 1.447 14.495 3.376 18.87 5.209 24.613 8.585 6.017 3.666 9.162 6.078 10.392 10.515 1.915 6.656-4.922 13.506-5.469 20.451-.137 2.412 1.367 4.92.957 7.332-.684 3.376-3.692 5.692-4.649 8.489-2.051 6.174-3.555 11.094-11.486 18.233-8.341 7.428-15.178 16.496-22.289 24.503-.41.482-.82 1.157-1.367 1.64-11.349 9.936-17.503 18.328-24.887 27.3-5.606 6.753-13.126 13.023-15.588 20.162-.957 2.894 0 6.367 0 9.936 0 2.315-.683 4.341-.683 6.367 0 5.402-2.325 9.647 9.708 14.76 8.204 3.472 6.974 5.402 16.135 7.621 3.555.868 7.794.289 19.827 0 12.444-.29 11.076-1.544 22.562 4.727 2.735 1.447 5.06 3.665 7.111 5.691 6.426 6.367 10.529 13.795 9.435 21.32-1.094 7.621-6.017 12.637-8.478 19.293-.41 1.158.137 2.508-.41 3.763-5.196 10.322-14.358 16.881-24.613 22.284-1.915.964-3.145 1.833-4.103 2.604-2.871 2.316-1.23 3.859-.41 6.367 3.966 11.866 3.282 21.706 0 31.352-3.008 8.49 0 15.628 0 20.259 0 4.63 2.598 7.138 0 7.138" stroke="url(#f)"/><path d="M169.269-177.512c.273 0-.547 6.946 0 19.197.41 11.19.273 24.792 0 43.218-.137 10.901 5.47 23.249-1.367 35.693-.684 1.35-2.188 2.701-3.419 4.245-1.914 2.315-4.102 5.016-7.794 8.007-6.427 5.016-11.213 10.804-14.768 16.688-1.504 2.412-2.324 4.535-4.786 7.14-3.692 3.858-.41 7.234-2.324 10.9-1.641 3.087 2.188 6.174 4.375 8.972 2.325 2.894 6.701 4.63 9.435 8.778.684 1.061.958 2.122 2.051 3.377 1.505 1.832 3.009 4.051 4.786 6.174 3.145 3.569-.136 7.138.274 10.9.41 3.763-2.051 6.85-3.692 10.419-.684 1.447-.41 1.833-2.735 4.052-1.914 1.736-5.196 3.858-6.974 6.945-2.461 4.438.821 10.805 3.966 14.278 3.145 3.569 7.794 6.752 9.845 9.26.684.772 2.051 1.158 2.598 1.64 1.504 1.64 1.914 3.088 7.384 4.342 5.333 1.254 6.427.964 9.025 1.447 14.221 2.894 18.459 5.209 23.929 8.585 6.017 3.763 9.162 6.27 10.392 10.901 1.778 6.946-5.743 13.602-6.153 20.644-.137 2.605 1.504 5.017.957 7.428-.82 3.473-3.965 5.692-4.786 8.49-2.051 6.367-3.555 11.19-11.759 18.329-8.752 7.621-15.178 16.689-22.562 24.695-.41.483-.821 1.158-1.368 1.64-11.075 9.744-17.502 18.522-24.886 27.59-5.606 6.946-12.854 13.216-15.588 20.259-1.094 2.894-.137 6.463-.274 10.032 0 2.316-.547 4.534-.41 6.464.41 5.402-2.598 9.743 9.845 14.952 8.341 3.473 6.837 5.402 16.546 7.428 3.692.772 8.341-.096 20.784-.675 12.853-.579 11.349-1.929 23.246 4.341 2.734 1.447 5.059 3.666 7.11 5.692 6.7 6.463 10.802 13.988 9.708 21.416-1.23 7.621-6.563 12.733-9.161 19.486-.41 1.061.137 2.508-.684 3.859-6.427 10.322-14.904 16.882-25.57 22.284-1.914.965-3.418 1.833-4.376 2.605-2.871 2.315-1.367 3.858-.41 6.367 4.649 11.865 3.555 21.994 0 31.641-3.145 8.489 0 15.724 0 20.451s2.598 7.332 0 7.332" stroke="url(#g)"/><path d="M158.193-177.512c.274 0-.547 7.139 0 19.487.41 11.19.137 25.274 0 43.893-.137 11.19 5.059 23.73-1.367 36.368-.821 1.543-2.188 2.894-3.419 4.341-1.914 2.315-4.102 5.21-7.794 8.103-6.427 5.017-11.212 10.998-14.904 16.882-1.504 2.22-2.325 4.245-4.649 6.85-3.419 3.762-.411 6.945-2.325 10.418-1.504 2.99 1.641 5.788 3.692 8.586 2.188 2.894 6.016 4.534 8.478 8.489.547.868.957 2.026 1.777 3.28 1.368 1.833 2.735 3.955 4.376 5.884 2.871 3.473.137 6.85.41 10.419.41 3.57-1.777 6.656-3.008 9.936-.41 1.254-.41 1.833-2.598 4.052-1.504 1.64-4.649 3.955-6.153 6.85-2.462 4.437 1.23 10.514 4.649 13.794 3.418 3.28 8.067 6.463 10.392 8.779.82.771 2.051.964 2.598 1.447 1.504 1.543 2.051 2.894 7.384 4.244 5.059 1.254 6.153.965 8.751 1.447 13.537 2.798 18.186 5.21 23.519 8.49 6.29 3.858 9.298 6.463 10.392 10.997 1.641 6.946-6.29 13.795-6.973 20.837-.274 2.605 1.504 5.016.957 7.428-.821 3.473-3.966 5.692-4.786 8.586-2.051 6.367-3.418 11.094-12.033 18.522-8.751 7.524-15.178 16.882-22.562 24.985-.41.482-.82 1.157-1.367 1.64-10.939 9.84-17.64 18.811-25.16 28.072-5.607 6.946-12.58 13.313-15.588 20.644-1.231 2.894-.274 6.656-.411 10.033-.136 2.315-.547 4.534-.41 6.463.137 5.402-2.598 9.84 10.119 14.953 8.614 3.473 6.7 5.498 17.229 7.331 3.965.676 8.751-.385 21.468-1.157 13.4-.868 11.486-2.412 23.656 4.051 2.734 1.447 5.059 3.57 7.384 5.692 6.973 6.463 11.212 13.988 9.845 21.609-1.231 7.717-6.427 12.927-9.709 19.679-.547 1.254 0 2.702-.683 3.859-6.017 10.901-15.452 16.882-26.528 22.381-1.914.964-3.555 1.736-4.649 2.411-3.418 2.123-1.504 3.956-.684 6.367 4.239 12.155 3.692 22.092 0 32.028-3.281 8.682 0 15.917 0 20.644 0 4.92 2.598 7.332 0 7.332" stroke="url(#h)"/><path d="M146.981-177.512c.273 0-.411 7.332 0 19.776.41 11.383.273 25.757 0 44.665-.137 11.383 5.059 24.213-1.094 37.236-.684 1.544-2.188 2.894-3.419 4.534-1.777 2.412-4.239 5.113-8.067 8.104-6.564 5.113-11.623 11.094-15.178 17.171-1.368 2.219-2.325 4.148-4.376 6.463-3.008 3.473-.684 6.56-2.598 9.744-1.641 2.797 1.231 5.691 3.008 8.296 1.915 2.701 5.47 4.534 7.794 8.296.547.868.957 1.833 1.778 3.087 1.231 1.64 2.461 3.762 4.102 5.692 2.735 3.28.274 6.56.684 9.936.41 3.376-1.368 6.463-2.325 9.55-.41 1.255-.273 1.93-2.051 3.86-1.504 1.64-4.102 3.761-5.469 6.462-2.325 4.438 1.64 10.323 5.332 13.506 3.556 3.184 8.341 6.174 10.803 8.49.82.771 2.051.964 2.598 1.446 1.504 1.544 2.461 2.798 7.657 4.052 4.649 1.157 6.153.965 8.751 1.447 12.854 2.701 17.776 5.113 22.836 8.49 6.153 4.05 9.298 6.559 10.392 11.19 1.641 7.138-6.974 13.987-7.657 21.126-.274 2.605 1.504 4.92.957 7.621-.821 3.569-4.102 5.885-5.06 8.586-2.051 6.367-3.418 11.19-12.033 18.522-8.888 7.62-15.998 16.689-22.835 25.178-.547.675-.82 1.157-1.367 1.833-9.982 10.418-17.64 19.004-25.16 28.458-5.607 7.042-12.58 13.505-15.452 20.933-1.23 3.087-.547 6.56-.41 10.226 0 2.315-.41 4.534-.273 6.656.41 5.402-2.735 9.84 10.392 14.953 8.888 3.376 6.837 5.691 17.776 7.138 3.965.579 9.161-.771 22.288-1.64 13.537-.868 11.486-2.604 24.34 3.763 2.871 1.447 5.196 3.666 7.384 5.691 7.11 6.56 11.486 14.085 9.845 21.802-1.641 7.718-6.974 12.927-10.119 19.776-.547 1.254-.137 2.701-.957 3.859-7.384 10.901-15.999 17.171-27.348 22.38-2.051.965-3.555 1.737-4.649 2.412-3.418 2.122-1.641 3.955-.684 6.463 4.239 12.155 3.829 22.188 0 32.317-3.281 8.682 0 16.111 0 20.934 0 4.92 2.598 7.428 0 7.428" stroke="url(#i)"/><path d="M135.905-177.512c.273 0-.274 7.332 0 20.162.273 11.576.137 26.239 0 45.34-.137 11.672 4.922 24.792-.957 37.815-.684 1.544-2.188 2.99-3.419 4.534-2.051 2.508-4.376 5.403-8.067 8.297-6.701 5.209-11.487 11.286-15.452 17.557-1.367 2.026-2.325 3.955-4.102 6.174-2.872 3.28-1.094 6.27-2.735 9.26-1.504 2.605.821 5.403 2.325 7.911 1.504 2.605 4.922 4.438 7.11 7.91.547.869 1.094 1.833 1.778 2.895 1.23 1.736 2.324 3.569 3.692 5.402 2.461 3.087.273 6.174.957 9.454.547 3.183-.821 6.174-1.641 9.068-.41 1.254-.274 1.832-1.778 3.762-1.367 1.736-3.828 3.666-5.059 6.367-2.188 4.437 2.325 9.936 6.153 13.12 3.692 3.087 8.888 5.98 11.213 7.91.82.675 2.051.965 2.598 1.447 1.504 1.35 2.735 2.605 7.657 3.859 4.376 1.157 5.88.964 8.478 1.64 12.033 2.894 17.229 5.209 22.289 8.489 6.426 4.051 9.298 6.56 10.118 11.383 1.368 7.428-7.657 14.084-8.341 21.32-.273 2.604 1.504 5.112.957 7.62-.82 3.57-4.375 5.885-5.333 8.586-2.051 6.367-3.555 11.19-12.169 18.715-8.888 7.621-15.999 16.882-22.836 25.468-.547.675-.82 1.157-1.367 1.832-9.572 10.323-17.776 19.198-25.297 28.748-5.606 7.042-12.443 13.795-15.451 21.319-1.23 2.991-.684 6.753-.684 10.419 0 2.315-.41 4.727-.273 6.656.41 5.499-3.009 9.937 10.528 15.146 9.025 3.473 6.974 5.498 18.46 6.849 4.102.482 9.435-1.158 22.972-2.315 14.084-1.158 11.76-2.991 24.887 3.376 2.871 1.447 5.196 3.666 7.657 5.885 7.247 6.656 11.896 14.181 10.119 22.091-1.778 7.91-7.384 13.12-10.529 19.969-.547 1.254-.274 2.701-1.094 4.052-7.794 11.286-16.545 17.074-28.305 22.38-2.051.965-3.692 1.64-4.786 2.412-3.418 2.315-1.641 3.955-.683 6.463 4.375 12.348 3.965 22.477 0 32.606-3.419 8.779 0 16.207 0 21.127 0 4.92 2.598 7.428 0 7.428" stroke="url(#j)"/><path d="M124.829-177.705c.273 0-.274 7.428 0 20.451.273 11.673.273 26.722 0 46.112-.137 11.866 4.786 25.275-.957 38.684-.684 1.543-2.188 3.087-3.419 4.727-1.914 2.508-4.375 5.305-8.341 8.489-6.7 5.306-11.759 11.383-15.451 17.847-1.094 2.025-2.051 3.858-3.966 5.884-2.735 2.99-1.23 5.788-3.008 8.779-1.504 2.508.41 5.209 1.64 7.62 1.368 2.605 3.966 4.438 6.154 7.622.547.771 1.094 1.736 1.778 2.797.957 1.544 1.914 3.473 3.281 5.21 2.188 2.99.684 5.884 1.368 8.971.684 2.894-.274 5.885-.957 8.586-.274 1.254-.137 1.93-1.368 3.57-1.367 1.736-3.281 3.568-4.375 6.173-2.052 4.534 2.598 9.743 6.973 12.83 3.966 2.894 9.025 5.596 11.76 7.621.957.676 2.051.868 2.598 1.254 1.641 1.447 3.282 2.605 7.657 3.763 4.102 1.157 5.743 1.06 8.341 1.64 11.623 2.508 16.956 5.209 21.605 8.489 6.153 4.244 9.298 6.752 10.119 11.576 1.23 7.525-8.205 14.277-9.025 21.416-.273 2.604 1.504 5.113.957 7.621-.82 3.666-4.649 5.884-5.469 8.778-2.052 6.367-3.556 11.287-12.444 18.812-9.161 7.814-15.998 16.978-22.972 25.853-.547.675-.82 1.158-1.367 1.833-9.435 10.419-17.64 19.39-25.297 29.037-5.606 7.139-12.306 13.988-15.451 21.416-1.231 2.99-.82 6.849-.957 10.515-.137 2.412-.137 4.727 0 6.849.546 5.499-3.282 9.936 10.802 15.146 9.298 3.376 6.837 5.691 18.87 6.656 4.375.386 9.845-1.447 23.929-2.798 14.494-1.35 12.307-3.665 25.57 3.087 3.009 1.544 5.196 3.763 7.658 5.885 7.657 6.656 12.306 14.181 10.392 22.284-1.915 8.007-7.794 13.313-11.076 20.162-.547 1.254-.274 2.701-1.094 4.052-8.204 11.479-17.229 17.267-28.989 22.573-2.051.965-3.692 1.64-4.785 2.412-3.419 2.315-1.641 3.859-.684 6.463 4.786 12.445 4.102 22.574 0 32.992-3.419 8.779 0 16.4 0 21.32 0 4.92 2.735 7.621 0 7.621" stroke="url(#k)"/><path d="M113.753-177.705c.274 0-.273 7.621 0 20.837.274 11.866.137 27.397 0 46.787-.137 12.155 4.512 25.66-.684 39.456-.683 1.736-1.914 2.99-3.418 4.92-2.051 2.508-4.376 5.498-8.341 8.585-6.7 5.306-11.76 11.77-15.588 18.233-1.094 1.833-1.915 3.57-3.692 5.498-2.462 2.895-1.505 5.596-3.009 8.297-1.367 2.508-.136 4.92.958 7.331 1.094 2.412 3.418 4.341 5.47 7.428a65.641 65.641 0 0 1 1.777 2.605c.957 1.543 1.777 3.28 3.008 4.92 2.051 2.797.82 5.595 1.64 8.489.821 2.701-.136 5.595-.273 8.296 0 1.158 0 2.026-.957 3.57-.957 1.64-2.735 3.569-3.692 5.884-1.914 4.534 3.145 9.358 7.658 12.348 4.102 2.701 9.298 5.21 12.169 7.139.958.675 2.051.868 2.735 1.254 1.778 1.157 3.419 2.412 7.794 3.57 3.692.964 5.47 1.06 8.068 1.64 10.939 2.41 16.545 5.208 21.194 8.488 6.29 4.341 9.299 6.946 10.119 11.673 1.231 7.717-8.614 14.47-9.708 21.802-.411 2.604 1.64 5.112.957 7.814-.957 3.665-4.649 5.884-5.743 8.778-2.462 6.464-3.692 11.383-12.717 18.812-9.298 7.717-15.998 17.171-22.972 25.949a19.642 19.642 0 0 1-1.641 1.833c-10.529 9.744-17.776 19.487-25.57 29.423-5.606 7.139-12.17 14.181-15.178 21.802-1.23 2.99-1.094 6.946-1.094 10.515-.137 2.412-.137 4.63.273 6.849.82 5.499-3.418 9.936 11.076 15.146 9.572 3.376 6.974 5.691 19.554 6.463 4.649.289 10.392-2.026 24.613-3.376 14.904-1.544 12.58-4.052 25.98 2.797 3.009 1.544 5.333 3.859 7.658 5.885 7.794 6.849 12.58 14.374 10.529 22.38-1.915 8.007-7.658 13.602-11.487 20.259-.683 1.254-.41 2.894-1.367 4.244-8.614 11.866-17.639 17.172-29.946 22.574-2.051.965-3.828 1.64-5.059 2.412-3.555 2.315-1.778 3.858-.684 6.463 4.786 12.541 4.239 22.863 0 33.281-3.555 8.876 0 16.593 0 21.609 0 5.017 2.735 7.621 0 7.621" stroke="url(#l)"/><path d="M102.677-177.705c-7.52 0-.137 7.814 0 21.127.137 12.058.137 27.879 0 47.558 0 12.348 4.376 26.143-.41 40.131-.547 1.737-1.914 3.184-3.418 5.016-2.052 2.509-4.376 5.5-8.478 8.78-6.974 5.498-12.033 11.865-15.862 18.328-.957 1.64-1.914 3.376-3.418 5.21-2.188 2.7-1.778 5.112-3.282 7.813-1.23 2.316-.274 4.727.41 6.946.82 2.412 2.735 4.341 4.65 7.139a52.253 52.253 0 0 1 1.64 2.411c.82 1.35 1.367 3.087 2.598 4.727 1.778 2.605 1.094 5.113 1.778 7.91.683 2.605.273 5.306.273 7.815 0 1.157 0 2.025-.684 3.376-.82 1.64-2.324 3.473-3.281 5.691-1.778 4.535 3.418 8.972 8.34 12.059 4.103 2.508 9.436 5.113 12.718 6.656 1.093.483 1.914.772 2.734 1.158 2.051.965 3.692 2.219 7.794 3.376 3.419.965 5.196 1.062 7.794 1.833 10.119 2.605 15.862 5.113 20.511 8.49 6.29 4.533 9.435 7.042 10.119 11.865 1.094 8.007-9.162 14.663-10.392 21.898-.41 2.605 1.641 5.113.957 7.814-1.094 3.762-4.786 5.885-5.743 8.779-2.188 6.56-3.419 11.287-12.717 19.004-9.435 7.814-15.998 17.268-23.245 26.336a19.926 19.926 0 0 1-1.641 1.833c-10.392 9.743-17.913 19.776-25.57 29.712-5.607 7.235-12.033 14.277-15.178 22.091-1.231 2.991-1.094 6.946-1.368 10.708-.136 2.412 0 4.823.274 6.946.547 5.498-3.419 9.936 11.212 15.242 9.572 3.376 6.974 5.884 19.964 6.367 4.786.193 10.802-2.219 25.57-3.859 15.452-1.737 12.717-4.438 26.528 2.412 3.008 1.543 5.332 3.858 7.794 5.884 8.204 6.753 12.99 14.47 10.802 22.574-2.188 8.103-8.067 13.602-12.033 20.451-.684 1.254-.547 2.894-1.641 4.245-9.982 11.769-18.049 17.75-30.903 22.573-2.324.868-3.965 1.64-5.333 2.412-3.692 2.219-1.777 3.859-.683 6.656 5.059 12.541 4.375 22.96 0 33.475-3.692 8.875 0 16.689 0 21.801 0 5.017 2.735 7.814 0 7.814" stroke="url(#m)"/><path d="M91.738-177.705c-7.52 0-.137 7.814 0 21.32.137 12.155 0 28.458 0 48.234 0 12.54 4.239 26.625-.41 40.902-.547 1.736-1.915 3.183-3.282 5.016-1.914 2.605-4.512 5.692-8.478 8.972-6.837 5.595-12.443 11.866-16.135 18.715a22.647 22.647 0 0 1-3.282 4.92c-2.05 2.315-2.05 4.727-3.418 7.138-1.367 2.219-.684 4.341-.274 6.464.41 2.315 2.051 4.244 3.966 6.849.41.579 1.094 1.35 1.64 2.315.821 1.35 1.095 2.894 2.052 4.341 1.64 2.412 1.23 4.824 2.05 7.428.821 2.412.821 5.017.958 7.332 0 1.157.273 2.026-.273 3.28-.684 1.736-1.778 3.376-2.599 5.498-1.504 4.63 3.83 8.779 9.025 11.673 4.376 2.508 9.572 4.63 13.4 6.367.821.386 1.778.675 2.736 1.158 2.05 1.06 4.102 2.218 8.067 3.28 3.145.868 5.196 1.157 7.657 1.832 9.572 2.412 15.452 5.113 19.964 8.297 6.29 4.437 9.299 7.042 9.846 12.058.957 8.103-9.846 14.953-11.076 22.091-.411 2.605 1.641 5.306.957 7.91-1.094 3.763-5.059 5.982-6.017 8.779-2.187 6.464-3.418 11.48-12.853 19.197-9.572 7.814-15.999 17.461-23.246 26.433-.547.675-1.094 1.157-1.64 1.833-9.025 10.418-17.913 19.872-25.844 30.194-5.606 7.332-11.896 14.374-15.178 22.381-1.23 2.99-1.368 7.138-1.641 10.901-.137 2.411.137 4.823.41 6.945.82 5.499-3.692 10.033 11.486 15.242 9.709 3.377 6.974 5.788 20.785 6.174 4.785.097 11.075-2.604 26.253-4.341 15.862-1.929 12.854-4.92 27.211 2.123 3.009 1.543 5.333 3.858 7.794 5.981 8.342 7.138 13.401 14.663 11.076 22.766-2.324 8.296-8.477 13.699-12.443 20.644-.684 1.254-.684 2.894-1.641 4.245-9.571 12.541-18.46 17.75-31.723 22.766-2.325.869-4.102 1.64-5.333 2.412-3.692 2.412-1.778 3.859-.684 6.656 5.196 12.734 4.513 22.96 0 33.764-3.828 9.068 0 16.882 0 21.898 0 5.017 2.735 7.814 0 7.814" stroke="url(#n)"/><path d="M80.662-177.705c-7.657 0-.137 8.007 0 21.609.137 12.348 0 28.94 0 49.006 0 12.83 4.24 27.107-.273 41.578-.547 1.736-1.915 3.376-3.282 5.209-2.051 2.797-4.65 5.691-8.478 8.971-6.837 5.692-12.443 12.155-16.409 19.005-.82 1.447-1.64 2.894-3.008 4.534-1.777 2.218-2.188 4.534-3.418 6.656s-1.094 4.245-.957 6.174c.273 2.315 1.504 4.148 3.281 6.656.41.579 1.231 1.254 1.641 2.122.684 1.351.957 2.798 1.778 4.245 1.367 2.315 1.504 4.438 2.598 6.85.957 2.218 1.367 4.726 1.64 6.848.138.965.411 2.026 0 3.088-.546 1.736-1.367 3.28-1.777 5.209-1.367 4.63 4.376 8.489 9.709 11.19 4.375 2.315 9.708 4.245 13.81 5.885.957.386 1.915.578 2.735.964 2.188.868 4.376 1.93 8.068 2.894 3.008.772 5.059 1.158 7.657 1.833 8.888 2.219 15.041 5.113 19.28 8.297 6.29 4.726 9.435 7.235 9.845 12.154.821 8.297-10.529 15.146-11.759 22.285-.41 2.797 1.641 5.305.957 7.91-1.094 3.762-5.059 5.981-6.153 8.972-2.462 6.463-3.555 11.383-13.127 19.197-9.709 7.91-15.999 17.653-23.246 26.818-.547.675-1.094 1.157-1.64 1.833-8.752 10.515-17.913 20.258-25.844 30.58-5.607 7.332-11.897 14.567-14.905 22.574-1.23 3.183-1.367 7.138-1.64 10.997-.137 2.412.136 5.016.41 7.139.957 5.691-3.966 10.032 11.759 15.242 9.982 3.376 7.11 5.981 21.195 5.981 5.059 0 11.486-2.991 27.21-5.017 16.136-2.122 12.991-5.112 27.622 1.833 3.282 1.544 5.333 3.859 8.067 5.981 8.752 7.042 13.674 14.567 11.213 22.863-2.461 8.296-9.025 13.892-13.127 20.837-.684 1.254-.684 2.991-1.777 4.341-10.666 12.541-19.281 17.847-32.681 22.767-2.325.868-4.102 1.64-5.47 2.412-4.102 2.315-1.914 3.762-.683 6.656 5.606 12.734 4.649 23.249 0 34.15-3.966 9.164 0 17.075 0 22.284s2.871 7.91 0 7.91" stroke="url(#o)"/><path d="M69.587-177.705c-7.795 0 0 8.103 0 21.898v49.681c0 13.024 3.828 27.59-.274 42.35-.547 1.833-1.778 3.376-3.282 5.402-2.05 2.798-4.649 5.788-8.751 9.068-6.974 5.595-12.854 12.155-16.546 19.294-.683 1.254-1.64 2.7-2.734 4.244-1.504 2.026-2.325 4.052-3.692 6.174-1.23 1.93-1.641 3.86-1.641 5.885 0 2.122.547 4.148 2.325 6.367.547.675 1.23 1.157 1.64 1.93.684 1.253.684 2.604 1.368 3.858.957 2.122 1.777 4.245 2.734 6.367.958 2.122 1.778 4.34 2.325 6.463.274.965.547 1.93.41 3.087 0 1.64-.82 3.28-1.367 5.017-1.367 4.63 4.65 8.296 10.392 10.9 4.65 2.123 9.845 3.956 14.22 5.5.958.288 1.915.674 2.736.964 2.05.772 4.649 1.93 8.34 2.797 2.599.58 4.787 1.254 7.385 1.93 8.204 2.315 14.63 5.113 18.87 8.296 6.29 4.727 9.435 7.428 9.845 12.348.82 8.49-11.076 15.242-12.443 22.573-.547 2.798 1.504 5.306.683 7.91-1.094 3.956-5.332 5.982-6.426 8.972-2.462 6.657-3.556 11.577-13.127 19.294-9.709 7.91-15.999 17.75-23.52 27.108-.546.675-1.093 1.157-1.64 1.832-8.615 10.419-17.913 20.355-25.844 30.87-5.606 7.525-11.76 14.856-14.904 22.863-1.231 3.184-1.641 7.139-1.778 10.998-.137 2.604.41 5.016.684 7.138.957 5.692-4.103 10.129 12.033 15.435 10.255 3.376 7.11 5.885 21.878 5.885 5.333 0 12.033-3.377 27.895-5.499 16.545-2.219 13.263-5.595 28.304 1.447 3.282 1.543 5.47 3.859 8.068 5.981 8.751 7.139 14.221 14.76 11.486 23.249-2.598 8.393-9.025 13.988-13.537 20.933-.957 1.447-.957 3.087-2.051 4.341-11.35 12.734-19.69 17.751-33.638 22.767-2.324.868-4.239 1.64-5.47 2.412-3.965 2.411-1.914 3.762-.683 6.656 5.47 12.83 4.786 23.345 0 34.439-3.966 9.165 0 17.171 0 22.381 0 5.209 2.871 8.007 0 8.007" stroke="url(#p)"/><path d="M58.51-177.705c-41.021 0 15.315 51.418 0 115.762-1.093 4.437-5.059 9.068-12.17 14.76-7.246 5.788-12.99 12.347-16.818 19.679-3.692 7.139-10.392 13.698-5.47 22.863 3.83 7.331 8.615 15.435 7.11 23.345-1.777 8.875 18.187 12.637 28.58 16.4 8.477 3.087 26.39 7.331 33.637 12.83 6.29 4.823 9.435 7.428 9.845 12.54 1.231 11.963-9.298 20.742-12.443 30.87-3.829 12.734-5.743 16.883-19.964 28.459-9.845 8.007-15.588 18.232-23.519 27.3C31.3 165.336 12.703 182.7 4.772 203.344c-2.05 5.209-2.188 12.83-1.094 18.522 1.094 5.595-4.375 10.226 12.033 15.435 10.393 3.376 7.11 6.077 22.562 5.692 5.47-.193 12.444-3.666 28.715-6.174 16.956-2.605 13.4-5.885 28.716 1.254 14.357 6.752 23.519 18.522 19.827 29.422-3.419 10.13-8.888 17.558-16.136 25.661-11.759 13.12-20.374 17.943-34.32 22.863-9.983 3.569-8.205 5.113-6.428 9.068 5.607 13.023 4.923 23.442 0 34.728-4.102 9.358 0 17.365 0 22.574 0 5.209 2.872 8.103 0 8.103" stroke="url(#q)"/></g><defs><linearGradient id="c" x1="252.204" y1="106.374" x2="169.636" y2="106.374" gradientUnits="userSpaceOnUse"><stop stop-color="#fff"/><stop offset="1" stop-color="#fff" stop-opacity=".3"/></linearGradient><linearGradient id="d" x1="241.781" y1="106.211" x2="158.103" y2="106.211" gradientUnits="userSpaceOnUse"><stop stop-color="#fff"/><stop offset="1" stop-color="#fff" stop-opacity=".3"/></linearGradient><linearGradient id="e" x1="230.875" y1="106.536" x2="145.875" y2="106.536" gradientUnits="userSpaceOnUse"><stop stop-color="#fff"/><stop offset="1" stop-color="#fff" stop-opacity=".3"/></linearGradient><linearGradient id="f" x1="220.21" y1="106.536" x2="134.093" y2="106.536" gradientUnits="userSpaceOnUse"><stop stop-color="#fff"/><stop offset="1" stop-color="#fff" stop-opacity=".3"/></linearGradient><linearGradient id="g" x1="209.769" y1="106.536" x2="122.268" y2="106.536" gradientUnits="userSpaceOnUse"><stop stop-color="#fff"/><stop offset="1" stop-color="#fff" stop-opacity=".3"/></linearGradient><linearGradient id="h" x1="199.904" y1="106.13" x2="109.701" y2="106.13" gradientUnits="userSpaceOnUse"><stop stop-color="#fff"/><stop offset="1" stop-color="#fff" stop-opacity=".3"/></linearGradient><linearGradient id="i" x1="191.265" y1="106.536" x2="98.734" y2="106.536" gradientUnits="userSpaceOnUse"><stop stop-color="#fff"/><stop offset="1" stop-color="#fff" stop-opacity=".3"/></linearGradient><linearGradient id="j" x1="181.4" y1="106.455" x2="86.288" y2="106.455" gradientUnits="userSpaceOnUse"><stop stop-color="#fff"/><stop offset="1" stop-color="#fff" stop-opacity=".3"/></linearGradient><linearGradient id="k" x1="171.814" y1="106.536" x2="74.081" y2="106.536" gradientUnits="userSpaceOnUse"><stop stop-color="#fff"/><stop offset="1" stop-color="#fff" stop-opacity=".3"/></linearGradient><linearGradient id="l" x1="163.285" y1="106.455" x2="63.099" y2="106.455" gradientUnits="userSpaceOnUse"><stop stop-color="#fff"/><stop offset="1" stop-color="#fff" stop-opacity=".3"/></linearGradient><linearGradient id="m" x1="153.01" y1="106.536" x2="50.19" y2="106.536" gradientUnits="userSpaceOnUse"><stop stop-color="#fff"/><stop offset="1" stop-color="#fff" stop-opacity=".3"/></linearGradient><linearGradient id="n" x1="144.066" y1="106.292" x2="38.475" y2="106.292" gradientUnits="userSpaceOnUse"><stop stop-color="#fff"/><stop offset="1" stop-color="#fff" stop-opacity=".3"/></linearGradient><linearGradient id="o" x1="135.831" y1="105.967" x2="27.654" y2="105.967" gradientUnits="userSpaceOnUse"><stop stop-color="#fff"/><stop offset="1" stop-color="#fff" stop-opacity=".3"/></linearGradient><linearGradient id="p" x1="125.993" y1="106.292" x2="15.004" y2="106.292" gradientUnits="userSpaceOnUse"><stop stop-color="#fff"/><stop offset="1" stop-color="#fff" stop-opacity=".3"/></linearGradient><linearGradient id="q" x1="116.222" y1="106.454" x2="2.872" y2="106.454" gradientUnits="userSpaceOnUse"><stop stop-color="#fff"/><stop offset="1" stop-color="#fff" stop-opacity=".3"/></linearGradient><clipPath id="a"><path fill="#fff" transform="rotate(90 327.476 173.525)" d="M0 0h516.393v500H0z"/></clipPath></defs></svg>