<svg viewBox="0 0 990 98" xmlns="http://www.w3.org/2000/svg" preserveAspectRatio="none" class="grimlock-divider-svg grimlock-divider-svg--drips" aria-hidden="true"><path d="M0 98V29.7l56.4 56.4c3.9 3.9 10.3 3.9 14.1 0 3.8-3.9 3.9-10.3 0-14.1L37.4 38.8c-3.6-3.9-3.5-10 .3-13.8 3.7-3.7 9.7-3.9 13.6-.5L85.8 59c3.9 3.9 10.3 3.9 14.1 0 3.9-3.9 3.9-10.3 0-14.1l-4.8-4.8c-3.6-3.9-3.5-10 .3-13.8 3.8-3.8 9.9-3.9 13.8-.3l67.2 67.2c3.9 3.9 10.3 3.9 14.1 0 3.8-3.9 3.9-10.3 0-14.1l-19-19c-3.6-3.9-3.5-10 .3-13.8 3.7-3.7 9.7-3.9 13.6-.5l13.3 13.3c3.9 3.9 10.3 3.9 14.1 0 3.5-3.5 3.8-9.2.9-13.1l.2.2-.3-.3c-.2-.2-.4-.4-.6-.7-3-3.9-2.7-9.6.8-13.2 3.7-3.7 9.7-3.9 13.6-.5L269 73.1c3.9 3.9 10.3 3.9 14.1 0 3.8-3.9 3.9-10.3 0-14.1l-4.8-4.8c-3.6-3.9-3.5-10 .3-13.8 3.8-3.8 9.9-3.9 13.8-.3l46 46c3.9 3.9 10.3 3.9 14.1 0 3.8-3.9 3.9-10.3 0-14.1L341 60c-3.6-3.9-3.5-10 .3-13.8 3.7-3.7 9.7-3.9 13.6-.5L368.2 59c3.9 3.9 10.3 3.9 14.1 0 3.9-3.9 3.9-10.3 0-14.1L361 23.6c-2.7-3.9-2.3-9.3 1.1-12.8 3.7-3.7 9.7-3.9 13.6-.5l62.8 62.8c3.9 3.9 10.3 3.9 14.1 0 3.8-3.9 3.9-10.3 0-14.1l-4.8-4.8c-3.6-3.9-3.5-10 .3-13.8 3.8-3.8 9.9-3.9 13.8-.3l46 46c3.9 3.9 10.3 3.9 14.1 0 3.8-3.9 3.9-10.3 0-14.1l-11.7-12c-3.6-3.9-3.5-10 .3-13.8 3.7-3.7 9.7-3.9 13.6-.5L537.5 59c3.9 3.9 10.3 3.9 14.1 0 3.9-3.9 3.9-10.3 0-14.1l-6.9-6.9c-2.9-3.9-2.6-9.5.9-13.1 3.7-3.7 9.7-3.9 13.6-.5l34.5 34.5c3.9 3.9 10.3 3.9 14.1 0 3.9-3.9 3.9-10.3 0-14.1L603 40c-3.6-3.9-3.5-10 .3-13.8 3.8-3.8 9.9-3.9 13.8-.3L677.2 86c3.9 3.9 10.3 3.9 14.1 0 3.8-3.9 3.9-10.3 0-14.1L679.6 60c-3.6-3.9-3.5-10 .3-13.8 3.7-3.7 9.7-3.9 13.6-.5l6.3 6.3c3.9 3.9 10.3 3.9 14.1 0 3.5-3.5 3.8-9.2.9-13.1l.2.2-.3-.3c-.2-.2-.4-.4-.6-.7-3-3.9-2.7-9.6.8-13.2 3.7-3.7 9.7-3.9 13.6-.5l48.7 48.7c3.9 3.9 10.3 3.9 14.1 0 3.8-3.9 3.9-10.3 0-14.1l-20.7-20.7c-16.1-16.5-15.9-22.6-12.2-26.3 3.8-3.8 9.9-3.9 13.8-.3L797 36.5c3.9 3.9 10.3 3.9 14.1 0 3.8-3.9 3.9-10.3 0-14.1l-4.8-4.8c-3.6-3.9-3.5-10 .3-13.8 3.7-3.7 9.7-3.9 13.6-.5L876 59.1c3.9 3.9 10.3 3.9 14.1 0 3.8-3.9 3.9-10.3 0-14.1l-6.9-6.9c-2.9-3.9-2.6-9.5.9-13.1 3.7-3.7 9.7-3.9 13.6-.5l48.7 48.7c3.9 3.9 10.3 3.9 14.1 0 3.8-3.9 3.9-10.3 0-14.1L934.8 33c-3.6-3.9-3.5-10 .3-13.8 3.8-3.8 9.9-3.9 13.8-.3l38.9 38.9c.7.7 1.4 1.2 2.2 1.6V98H0z"/></svg>
