<svg xmlns="http://www.w3.org/2000/svg" viewBox="0 0 41 38">
	<path d="M28.681273 37.9550781c.904522 0 1.758794-.3474178 2.562814-1.0422535s1.20603-1.5112676 1.20603-2.4492958c0-.8685446-.251256-1.6849765-.753769-2.4492957-.502513-.7643193-1.20603-1.6502348-2.110553-2.6577465-.871022-.97277-1.959799-2.180047-3.266331-3.621831-1.306533-1.441784-2.713568-3.2396714-4.221106-5.393662 3.484087.4169014 6.624791.9988263 9.422111 1.7457747 2.797319.7469483 4.564489 1.1204225 5.301507 1.1204225 1.105528 0 2.01005-.2953052 2.713568-.8859155.703518-.5906103 1.055276-1.5286385 1.055276-2.8140845 0-1.2159624-.351758-2.1366197-1.055276-2.7619718-.703518-.6253521-1.60804-.9380282-2.713568-.9380282-.871022 0-2.638191.3561033-5.301507 1.0683099-2.663317.7122065-5.804021 1.2767605-9.422111 1.6936619 3.18258-4.1690141 5.703518-7.2089202 7.562814-9.1197183 1.859297-1.9107981 2.788945-3.5784037 2.788945-5.0028169 0-1.0075117-.393635-1.8413145-1.180905-2.5014084-.787269-.6600939-1.649916-.9901409-2.587939-.9901409-.636516 0-1.214406.1823944-1.733669.5471831-.519263.3647888-.963149.8772301-1.331658 1.537324-.469012.9032864-1.046901 2.6838028-1.733668 5.3415493-.686768 2.6577464-1.78392 5.7584507-3.291458 9.3021126-1.340033-3.1267605-2.39531-6.1406103-3.165829-9.0415493-.770519-2.9009389-1.390285-4.7683098-1.859296-5.6021126-.40201-.6948357-.862647-1.2159625-1.38191-1.5633803-.519263-.3474179-1.080402-.5211268-1.683417-.5211268-.904523 0-1.758794.3474179-2.562814 1.0422535-.80402.6948357-1.20603 1.5112677-1.20603 2.4492958 0 .8685446.242881 1.6762911.728643 2.4232395.485762.7469483 1.197655 1.6415493 2.135678 2.6838028.804021.8685446 1.926299 2.1279342 3.366835 3.778169 1.440536 1.6502347 2.81407 3.3960094 4.120603 5.2373239-3.752094-.3821596-6.892798-.9380281-9.422111-1.6676056-2.529313-.7295775-4.296482-1.0943662-5.301507-1.0943662-1.105528 0-2.010051.3213615-2.713568.9640845-.703518.642723-1.055277 1.5546948-1.055277 2.7359155 0 1.3201878.351759 2.2669014 1.055277 2.8401408.703517.5732395 1.60804.8598592 2.713568.8598592.871021 0 2.721943-.3908451 5.552763-1.1725352 2.830821-.7816902 5.887773-1.3462441 9.170855-1.693662-1.373535 1.9802817-2.755444 3.7521127-4.145729 5.315493-1.390285 1.5633803-2.504188 2.7967136-3.341709 3.7-.971524 1.1117371-1.691792 2.0323943-2.160804 2.7619718-.469011.7295775-.703517 1.5112676-.703517 2.3450704 0 1.0075118.393635 1.8413146 1.180904 2.5014085.78727.6600939 1.649917.9901408 2.58794.9901408.703518 0 1.281407-.1737089 1.733668-.5211267.452262-.3474179.896148-.8685446 1.331659-1.5633803.469011-.7990611 1.021775-2.4058686 1.658291-4.8204226.636516-2.4145539 1.758794-5.6889671 3.366834-9.8232394 1.775545 4.3079812 2.922948 7.5737089 3.442211 9.7971831s1.046902 3.8389671 1.582915 4.8464789c.368509.6600939.82077 1.1725352 1.356784 1.5373239.536013.3647888 1.105527.5471831 1.708543.5471831z"/>
</svg>
