<?xml version="1.0" standalone="no"?>
<!DOCTYPE svg PUBLIC "-//W3C//DTD SVG 20010904//EN"
 "http://www.w3.org/TR/2001/REC-SVG-20010904/DTD/svg10.dtd">
<svg version="1.0" xmlns="http://www.w3.org/2000/svg"
 width="512.000000pt" height="512.000000pt" viewBox="0 0 512.000000 512.000000"
 preserveAspectRatio="xMidYMid meet">
<metadata>
Created by potrace 1.11, written by Peter Selinger 2001-2013
</metadata>
<g transform="translate(0.000000,512.000000) scale(0.100000,-0.100000)"
fill="#000000" stroke="none">
<path d="M2117 4654 c-1 -1 -47 -5 -102 -8 -812 -49 -1476 -463 -1795 -1119
-112 -232 -184 -497 -206 -767 -6 -73 -6 -351 0 -405 3 -27 8 -75 12 -105 10
-91 53 -283 85 -382 75 -230 190 -444 339 -632 25 -32 132 -146 180 -192 196
-187 479 -352 762 -445 148 -48 248 -71 456 -103 203 -32 571 -25 790 14 149
26 153 27 255 61 181 59 279 112 542 291 7 5 10 179 10 533 1 289 1 525 0 525
0 0 -41 -39 -91 -88 -99 -95 -217 -185 -322 -246 -146 -85 -368 -160 -532
-180 -25 -4 -63 -8 -85 -11 -56 -7 -261 -7 -315 1 -391 52 -693 238 -877 540
-72 119 -130 277 -148 407 -3 20 -7 54 -11 75 -9 64 -6 248 6 329 41 275 135
469 319 654 142 143 383 273 565 305 17 3 51 10 76 16 58 13 325 19 415 8 144
-17 292 -52 380 -89 226 -97 375 -195 543 -359 40 -40 74 -72 76 -72 1 0 2
235 2 523 l0 522 -71 51 c-329 239 -660 339 -1148 347 -60 1 -109 1 -110 1z"/>
<path d="M4402 1715 c-263 -58 -462 -306 -462 -575 0 -335 293 -610 626 -587
246 17 458 184 529 417 20 67 28 220 14 280 -6 25 -12 54 -15 65 -2 11 -20 54
-41 95 -117 232 -394 362 -651 305z"/>
</g>
</svg>
